<?xml version="1.0" standalone="no"?>
<!DOCTYPE svg PUBLIC "-//W3C//DTD SVG 20010904//EN"
 "http://www.w3.org/TR/2001/REC-SVG-20010904/DTD/svg10.dtd">
<svg version="1.0" xmlns="http://www.w3.org/2000/svg"
 width="1187.000000pt" height="1280.000000pt" viewBox="0 0 1187.000000 1280.000000"
 preserveAspectRatio="xMidYMid meet">
<metadata>
Created by potrace 1.15, written by Peter Selinger 2001-2017
</metadata>
<g transform="translate(0.000000,1280.000000) scale(0.100000,-0.100000)"
fill="#000000" stroke="none">
<path d="M8470 12223 c-1884 -61 -3608 -1033 -4633 -2614 -177 -273 -370 -641
-500 -954 l-25 -60 -1019 -5 c-782 -4 -1023 -8 -1040 -17 -24 -14 -14 11 -275
-688 -321 -862 -379 -1024 -380 -1057 -1 -22 6 -38 24 -53 24 -21 38 -22 268
-28 134 -4 563 -8 954 -9 391 -1 648 -5 571 -8 -138 -6 -139 -6 -40 -8 98 -3
243 -21 317 -40 53 -14 159 -66 185 -91 13 -12 24 -18 24 -14 5 27 17 -123 19
-232 1 -71 5 -175 9 -231 l6 -101 -834 -6 -834 -6 -23 -23 c-33 -35 -644
-1676 -644 -1732 0 -19 9 -44 19 -57 l19 -24 1128 -3 c636 -1 1132 -6 1138
-11 6 -5 52 -12 101 -16 200 -14 329 -44 422 -96 41 -23 44 -23 37 -1 -3 9 36
-59 86 -153 322 -595 645 -1032 1082 -1461 456 -448 909 -770 1483 -1054 582
-289 1158 -463 1810 -550 314 -41 863 -53 1196 -25 101 9 189 13 196 10 8 -2
12 -1 9 4 -6 10 116 25 198 25 33 0 51 3 40 6 -27 10 58 22 104 15 29 -4 33
-3 17 5 -15 7 -8 8 30 5 37 -3 43 -2 25 4 -15 5 -18 9 -9 10 9 1 32 3 50 6 29
4 30 3 9 -4 -60 -21 20 -9 179 28 175 41 376 99 368 107 -2 3 -16 0 -31 -6
-15 -5 -33 -10 -39 -9 -7 0 65 26 158 58 275 94 571 218 608 255 11 11 17 33
17 59 l0 42 -767 767 c-518 517 -777 769 -795 773 -16 4 -77 -2 -140 -14 -196
-36 -307 -50 -520 -62 -300 -17 -598 5 -908 67 -559 113 -1098 366 -1535 720
-107 87 -200 172 -165 150 l25 -15 1 62 c1 94 42 148 149 198 143 67 362 89
1001 98 426 6 463 7 482 24 11 10 59 121 108 247 48 126 91 227 95 225 4 -3 9
1 12 8 134 333 188 487 180 518 -4 15 -3 20 5 15 7 -4 10 -2 7 6 -3 8 48 164
114 347 66 183 123 345 126 361 5 22 0 35 -22 58 l-28 30 -330 6 c-181 3 -935
7 -1675 7 -740 1 -1329 4 -1310 8 26 5 31 8 18 13 -27 11 -67 100 -80 178 -15
85 -1 186 36 258 45 89 144 168 258 206 81 27 208 44 348 48 89 2 86 3 -45 8
-77 3 370 7 993 8 1011 2 1138 4 1167 18 37 17 53 50 155 321 29 78 57 140 62
137 4 -3 5 2 2 10 -3 8 -1 23 6 33 9 15 10 14 4 -7 -25 -96 90 188 155 378 43
128 48 147 30 122 -15 -20 -22 -41 126 370 70 195 127 370 128 388 1 21 -7 40
-21 55 l-23 22 -1237 5 c-680 3 -1237 7 -1237 8 0 1 -1 37 -3 80 -4 90 11 145
68 242 46 79 81 121 180 221 87 88 182 168 277 236 38 26 70 50 73 53 3 3 43
30 90 61 205 134 361 218 605 324 117 51 422 153 540 180 133 31 300 63 360
70 33 4 68 9 79 11 10 2 51 6 90 9 39 4 89 8 111 11 22 2 141 4 265 2 481 -4
471 -4 450 -18 -11 -8 -8 -9 13 -4 57 13 428 -75 671 -160 163 -57 194 -63
226 -46 10 5 68 95 130 200 62 104 116 187 120 185 13 -8 176 250 353 562 57
99 119 234 112 241 -3 3 -5 1 -5 -4 0 -6 -7 -19 -15 -30 -15 -17 -15 -16 -1
11 8 17 80 147 160 290 152 271 164 302 129 343 -38 45 -504 230 -793 315
-494 146 -921 216 -1445 237 -137 5 -259 9 -270 8 -11 -1 -58 -3 -105 -5z
m1930 -1883 c-6 -11 -13 -20 -16 -20 -2 0 0 9 6 20 6 11 13 20 16 20 2 0 0 -9
-6 -20z m-32 -55 c-6 -14 -13 -23 -15 -21 -5 5 15 46 22 46 3 0 -1 -11 -7 -25z
m-1680 -162 c-32 -2 -84 -2 -115 0 -32 2 -6 3 57 3 63 0 89 -1 58 -3z m230
-10 c-15 -2 -42 -2 -60 0 -18 2 -6 4 27 4 33 0 48 -2 33 -4z m110 -10 c-10 -2
-28 -2 -40 0 -13 2 -5 4 17 4 22 1 32 -1 23 -4z m-787 -2430 c-12 -20 -14 -14
-5 12 4 9 9 14 11 11 3 -2 0 -13 -6 -23z m-120 -320 c-12 -20 -14 -14 -5 12 4
9 9 14 11 11 3 -2 0 -13 -6 -23z m138 -2222 c-6 -18 -13 -30 -15 -28 -2 2 1
18 7 36 6 18 13 30 15 28 2 -2 -1 -18 -7 -36z m-160 -430 c-6 -18 -13 -30 -15
-28 -2 2 1 18 7 36 6 18 13 30 15 28 2 -2 -1 -18 -7 -36z m-5136 -548 c-7 -2
-21 -2 -30 0 -10 3 -4 5 12 5 17 0 24 -2 18 -5z m3930 0 c-13 -2 -35 -2 -50 0
-16 2 -5 4 22 4 28 0 40 -2 28 -4z m3354 -3159 c-3 -3 -12 -4 -19 -1 -8 3 -5
6 6 6 11 1 17 -2 13 -5z m-70 -20 c-3 -3 -12 -4 -19 -1 -8 3 -5 6 6 6 11 1 17
-2 13 -5z m-70 -20 c-3 -3 -12 -4 -19 -1 -8 3 -5 6 6 6 11 1 17 -2 13 -5z
m-80 -20 c-3 -3 -12 -4 -19 -1 -8 3 -5 6 6 6 11 1 17 -2 13 -5z m-84 -21 c-7
-2 -19 -2 -25 0 -7 3 -2 5 12 5 14 0 19 -2 13 -5z m-46 -9 c-3 -3 -12 -4 -19
-1 -8 3 -5 6 6 6 11 1 17 -2 13 -5z m-44 -11 c-7 -2 -19 -2 -25 0 -7 3 -2 5
12 5 14 0 19 -2 13 -5z"/>
<path d="M9093 10083 c9 -2 23 -2 30 0 6 3 -1 5 -18 5 -16 0 -22 -2 -12 -5z"/>
<path d="M8071 4633 c-1 -6 -4 -20 -7 -30 -5 -17 -5 -17 6 0 6 10 9 23 6 30
-3 9 -5 9 -5 0z"/>
<path d="M2017 4143 c161 -2 425 -2 585 0 161 1 30 2 -292 2 -322 0 -453 -1
-293 -2z"/>
<path d="M7003 4143 c31 -2 83 -2 115 0 31 2 5 3 -58 3 -63 0 -89 -1 -57 -3z"/>
<path d="M9613 843 c9 -2 23 -2 30 0 6 3 -1 5 -18 5 -16 0 -22 -2 -12 -5z"/>
<path d="M9488 823 c6 -2 18 -2 25 0 6 3 1 5 -13 5 -14 0 -19 -2 -12 -5z"/>
<path d="M9418 813 c7 -3 16 -2 19 1 4 3 -2 6 -13 5 -11 0 -14 -3 -6 -6z"/>
<path d="M9258 793 c6 -2 18 -2 25 0 6 3 1 5 -13 5 -14 0 -19 -2 -12 -5z"/>
</g>
</svg>
